<svg xmlns="http://www.w3.org/2000/svg" xmlns:xlink="http://www.w3.org/1999/xlink" width="44" height="44" viewBox="0 0 44 44"><defs><clipPath id="b"><rect width="44" height="44"/></clipPath></defs><g id="a" clip-path="url(#b)"><g transform="translate(15 12)" opacity="0.6"><path d="M8.438.938A.938.938,0,0,0,6.713.429c-3.723,5.753,1.1,8.9,1.1,10.821a1.563,1.563,0,1,1-3.125,0V7.115a.938.938,0,0,0-1.474-.769A7.5,7.5,0,1,0,15,12.5C15,5.848,8.438,4.967,8.438.938ZM7.5,18.125A5.631,5.631,0,0,1,1.875,12.5a6.762,6.762,0,0,1,.938-3.438V11.25a3.438,3.438,0,1,0,6.875,0c0-2.511-3.438-4.688-2.5-8.125C8.75,6.563,13.125,7.882,13.125,12.5A5.631,5.631,0,0,1,7.5,18.125Z" transform="translate(0 0)" fill="#fff"/></g></g></svg>