<svg xmlns="http://www.w3.org/2000/svg" xmlns:xlink="http://www.w3.org/1999/xlink" width="44" height="44" viewBox="0 0 44 44"><defs><clipPath id="b"><rect width="44" height="44"/></clipPath></defs><g id="a" clip-path="url(#b)"><g transform="translate(12 12)"><path d="M19.5,14.911A9.993,9.993,0,1,0,10,28,10,10,0,0,0,19.5,14.911Zm-1.734,7-3.8.468-.718-1,1.359-4.2,1.165-.363,2.806,2.621a8.87,8.87,0,0,1-.81,2.476ZM1.433,19.431l2.8-2.617,1.165.363,1.367,4.181-.73,1.016-3.8-.468a8.142,8.142,0,0,1-.8-2.476Zm7.923-7.286v1.327L5.892,15.984l-1.27-.4L3.9,11.8a8.7,8.7,0,0,1,2.1-1.524Zm6.024,3.443-1.27.4-3.464-2.512V12.145l3.371-1.871a8.689,8.689,0,0,1,2.1,1.528ZM6.695,17,10,14.6l3.31,2.4-1.254,3.871h-4.1Zm12,.786-2.06-1.923.536-2.754A8.552,8.552,0,0,1,18.7,17.786ZM12.465,9.661,10,11.028,7.542,9.665a7.888,7.888,0,0,1,4.923,0ZM2.832,13.085l.532,2.778L1.3,17.778a8.687,8.687,0,0,1,.952-3.734A8.518,8.518,0,0,1,2.832,13.085Zm.3,10.242,2.77.339,1.177,2.528a8.655,8.655,0,0,1-3.947-2.867ZM8.695,26.6,7.078,23.137l.7-.976h4.443l.7.976L11.3,26.6A8.206,8.206,0,0,1,8.695,26.6Zm4.226-.411L14.1,23.665l2.782-.343A8.617,8.617,0,0,1,12.92,26.193Z" transform="translate(0.003 -8)" fill="#ffd200" opacity="0.6"/></g></g></svg>