<svg xmlns="http://www.w3.org/2000/svg" xmlns:xlink="http://www.w3.org/1999/xlink" width="44" height="44" viewBox="0 0 44 44">
  <defs>
    <clipPath id="clip-icon_thieunhi">
      <rect width="44" height="44"/>
    </clipPath>
  </defs>
  <g id="icon_thieunhi" clip-path="url(#clip-icon_thieunhi)">
    <g id="icon_thieunhi-2" data-name="icon_thieunhi" transform="translate(14 12)">
      <path id="icon_thieunhi-3" data-name="icon_thieunhi" d="M31.427,3.949a2.816,2.816,0,0,0-3.166-.568,4.22,4.22,0,0,0-8.272,0,2.814,2.814,0,0,0-3.167,4.545l2.3,2.3v6.96A2.816,2.816,0,0,0,21.937,20h.313a2.8,2.8,0,0,0,1.875-.718A2.8,2.8,0,0,0,26,20h.313a2.816,2.816,0,0,0,2.812-2.812v-6.96l2.3-2.3A2.816,2.816,0,0,0,31.427,3.949Zm-7.3-2.074A2.344,2.344,0,1,1,21.78,4.219,2.344,2.344,0,0,1,24.124,1.875ZM30.1,6.6l-2.85,2.85v7.737a.937.937,0,0,1-.937.938H26a.937.937,0,0,1-.937-.937v-3.75H23.187v3.75a.937.937,0,0,1-.937.938h-.312A.937.937,0,0,1,21,17.188V9.451L18.149,6.6a.938.938,0,0,1,1.326-1.326l2.85,2.85h3.6l2.85-2.85A.938.938,0,0,1,30.1,6.6Z" transform="translate(-15.999)" fill="#fff" opacity="0.6"/>
    </g>
  </g>
</svg>
