<svg xmlns="http://www.w3.org/2000/svg" xmlns:xlink="http://www.w3.org/1999/xlink" width="19" height="24" viewBox="0 0 19 24">
  <defs>
    <clipPath id="clip-icon_xemchitiet">
      <rect width="19" height="24"/>
    </clipPath>
  </defs>
  <g id="icon_xemchitiet" clip-path="url(#clip-icon_xemchitiet)">
    <path id="Path_1582" data-name="Path 1582" d="M14.446,3.727,11.17.451A1.875,1.875,0,0,0,9.846-.1H1.875A1.881,1.881,0,0,0,0,1.779V18.025A1.875,1.875,0,0,0,1.875,19.9H13.122A1.875,1.875,0,0,0,15,18.025V5.055a1.884,1.884,0,0,0-.551-1.328Zm-.883.887a.614.614,0,0,1,.164.289H10V1.173a.614.614,0,0,1,.289.164ZM13.122,18.65H1.875a.627.627,0,0,1-.625-.625V1.779a.627.627,0,0,1,.625-.625H8.748V5.215a.935.935,0,0,0,.937.937h4.062V18.025A.627.627,0,0,1,13.122,18.65ZM11.248,9.121v.312a.47.47,0,0,1-.469.469H4.218a.47.47,0,0,1-.469-.469V9.121a.47.47,0,0,1,.469-.469h6.561A.47.47,0,0,1,11.248,9.121Zm0,2.5v.312a.47.47,0,0,1-.469.469H4.218a.47.47,0,0,1-.469-.469V11.62a.47.47,0,0,1,.469-.469h6.561A.47.47,0,0,1,11.248,11.62Zm0,2.5v.312a.47.47,0,0,1-.469.469H4.218a.47.47,0,0,1-.469-.469V14.12a.47.47,0,0,1,.469-.469h6.561A.47.47,0,0,1,11.248,14.12Z" transform="translate(2 2.1)" fill="rgba(255,255,255,0.87)"/>
  </g>
</svg>
