<svg xmlns="http://www.w3.org/2000/svg" xmlns:xlink="http://www.w3.org/1999/xlink" width="44" height="44" viewBox="0 0 44 44"><defs><clipPath id="b"><rect width="44" height="44"/></clipPath></defs><g id="a" clip-path="url(#b)"><g transform="translate(12 14)" opacity="0.6"><path d="M18.5,0H1.5A1.5,1.5,0,0,0,0,1.5v10A1.5,1.5,0,0,0,1.5,13H9.25v1.5H3.5A.5.5,0,0,0,3,15v.5a.5.5,0,0,0,.5.5h13a.5.5,0,0,0,.5-.5V15a.5.5,0,0,0-.5-.5H10.75V13H18.5A1.5,1.5,0,0,0,20,11.5V1.5A1.5,1.5,0,0,0,18.5,0Zm0,11.5H1.5V1.5h17Z" fill="#fff"/></g><text transform="translate(-128 -128)" fill="#707070" font-size="20" font-family="SegoeUI, Segoe UI"><tspan x="0" y="22">icon_truyenhinh</tspan></text></g></svg>