<svg xmlns="http://www.w3.org/2000/svg" xmlns:xlink="http://www.w3.org/1999/xlink" width="44" height="44" viewBox="0 0 44 44"><defs><clipPath id="b"><rect width="44" height="44"/></clipPath></defs><g id="a" clip-path="url(#b)"><g transform="translate(11 14)"><path d="M7.109,8.4a2.576,2.576,0,0,0-1.978,2.554A4.079,4.079,0,0,1,6.846,9.892L7.109,8.4ZM20.857,4.122A15.549,15.549,0,0,0,10.82,2.352,2.278,2.278,0,0,0,8.962,4.225L7.872,10.412c-.529,3,3.275,6.764,5.442,7.146S20.342,15.7,20.871,12.7l1.091-6.186a2.28,2.28,0,0,0-1.106-2.4Zm-1.611,8.3c-.351,1.992-4.269,3.758-5.646,3.515S9.145,12.69,9.5,10.7l1.091-6.186a.635.635,0,0,1,.494-.53,13.9,13.9,0,0,1,8.973,1.582.636.636,0,0,1,.283.668Zm-16.5-2.185L1.659,4.064A.633.633,0,0,1,1.941,3.4,13.976,13.976,0,0,1,8.706,1.645c.29,0,.582.017.874.035a3.272,3.272,0,0,1,1.067-.373,16.857,16.857,0,0,1,1.966-.183A2.208,2.208,0,0,0,11.176.2,15.6,15.6,0,0,0,1.139,1.961,2.27,2.27,0,0,0,.034,4.35l1.091,6.169c.49,2.767,4.686,4.882,7.028,4.882a3.158,3.158,0,0,0,.354-.028,9.776,9.776,0,0,1-1.086-1.7c-1.818-.361-4.4-1.885-4.671-3.442Zm3.9-4.847a1.358,1.358,0,0,0-.14-.393,2.163,2.163,0,0,1-1.214.631,2.165,2.165,0,0,1-1.357-.178,1.358,1.358,0,0,0,0,.417,1.375,1.375,0,1,0,2.708-.478ZM17.39,7.107A1.375,1.375,0,0,0,15.8,8.222a1.358,1.358,0,0,0,0,.417,2.279,2.279,0,0,1,2.572.453,1.357,1.357,0,0,0,.14-.393A1.375,1.375,0,0,0,17.39,7.107Zm-4.572.59a2.162,2.162,0,0,1,1.214.631,1.357,1.357,0,0,0,.14-.393,1.375,1.375,0,1,0-2.708-.477,1.358,1.358,0,0,0,0,.417A2.169,2.169,0,0,1,12.818,7.7Zm1.523,4.032a5.657,5.657,0,0,1-3.42-1.854,3.713,3.713,0,0,0,7.268,1.282A5.657,5.657,0,0,1,14.341,11.729Z" transform="translate(0.002)" fill="#fff" opacity="0.6"/></g></g></svg>