<svg xmlns="http://www.w3.org/2000/svg" xmlns:xlink="http://www.w3.org/1999/xlink" width="44" height="44" viewBox="0 0 44 44"><defs><clipPath id="b"><rect width="44" height="44"/></clipPath></defs><g id="a" clip-path="url(#b)"><g transform="translate(12 15)"><path d="M19.062,64H18.75v.781a.47.47,0,0,1-.469.469H16.719a.47.47,0,0,1-.469-.469V64H3.75v.781a.47.47,0,0,1-.469.469H1.719a.47.47,0,0,1-.469-.469V64H.938A.935.935,0,0,0,0,64.938V78.062A.935.935,0,0,0,.938,79H1.25v-.781a.47.47,0,0,1,.469-.469H3.281a.47.47,0,0,1,.469.469V79h12.5v-.781a.47.47,0,0,1,.469-.469h1.563a.47.47,0,0,1,.469.469V79h.312A.935.935,0,0,0,20,78.062V64.938A.935.935,0,0,0,19.062,64ZM3.75,76.031a.47.47,0,0,1-.469.469H1.719a.47.47,0,0,1-.469-.469V74.469A.47.47,0,0,1,1.719,74H3.281a.47.47,0,0,1,.469.469Zm0-3.75a.47.47,0,0,1-.469.469H1.719a.47.47,0,0,1-.469-.469V70.719a.47.47,0,0,1,.469-.469H3.281a.47.47,0,0,1,.469.469Zm0-3.75A.47.47,0,0,1,3.281,69H1.719a.47.47,0,0,1-.469-.469V66.969a.47.47,0,0,1,.469-.469H3.281a.47.47,0,0,1,.469.469ZM15,76.656a.47.47,0,0,1-.469.469H5.469A.47.47,0,0,1,5,76.656v-3.75a.47.47,0,0,1,.469-.469h9.062a.47.47,0,0,1,.469.469Zm0-6.562a.47.47,0,0,1-.469.469H5.469A.47.47,0,0,1,5,70.094v-3.75a.47.47,0,0,1,.469-.469h9.062a.47.47,0,0,1,.469.469Zm3.75,5.938a.47.47,0,0,1-.469.469H16.719a.47.47,0,0,1-.469-.469V74.469A.47.47,0,0,1,16.719,74h1.563a.47.47,0,0,1,.469.469Zm0-3.75a.47.47,0,0,1-.469.469H16.719a.47.47,0,0,1-.469-.469V70.719a.47.47,0,0,1,.469-.469h1.563a.47.47,0,0,1,.469.469Zm0-3.75a.47.47,0,0,1-.469.469H16.719a.47.47,0,0,1-.469-.469V66.969a.47.47,0,0,1,.469-.469h1.563a.47.47,0,0,1,.469.469Z" transform="translate(0 -64)" fill="#ffd200" opacity="0.6"/></g></g></svg>